<svg xmlns="http://www.w3.org/2000/svg" viewBox="0 0 171.3 160.1"><style/><g id="OBJECT"><circle cx="84.5" cy="81.8" r="70.6"/><path d="M131.3 50.5c0-.1-.1-.2-.1-.3-.1-.4-.2-.9-.4-1.3v-.1c-.2-.5-.5-1-.8-1.5-1.6-2.2-4.1-3.4-6.6-3.4H45.8c-2.5 0-5 1.2-6.5 3.4-.3.5-.6 1-.8 1.5v.1c-.2.4-.3.8-.4 1.3 0 .1-.1.2-.1.3-.1.6-.2 1.1-.2 1.7V108c0 4.6 3.7 8.3 8.3 8.3h77.4c4.6 0 8.3-3.7 8.3-8.3V52.2c-.3-.6-.3-1.2-.5-1.7zM84.5 69.7L54.8 48.6h59.4L84.5 69.7zm-31 41.9V67.3l29.6 21 1.5 1 1.4-1 29.6-21v44.3H53.5z" fill="#fff"/></g></svg>