<svg xmlns="http://www.w3.org/2000/svg" viewBox="0 0 171.3 160.1"><style>.st0{fill:#fff}</style><g id="OBJECT"><circle cx="84.5" cy="78" r="70.6"/><path class="st0" d="M108.2 123.2H60.8c-13.1 0-23.8-10.7-23.8-23.8V52c0-13.1 10.7-23.8 23.8-23.8h47.4c13.1 0 23.8 10.7 23.8 23.8v47.4c0 13.1-10.7 23.8-23.8 23.8zm-47.4-84c-7 0-12.8 5.7-12.8 12.8v47.4c0 7 5.7 12.8 12.8 12.8h47.4c7 0 12.8-5.7 12.8-12.8V52c0-7-5.7-12.8-12.8-12.8H60.8z"/><path class="st0" d="M84.5 102C70 102 58.2 90.2 58.2 75.7S70 49.4 84.5 49.4s26.3 11.8 26.3 26.3S99 102 84.5 102zm0-41.6c-8.4 0-15.2 6.8-15.2 15.2 0 8.4 6.8 15.2 15.2 15.2 8.4 0 15.2-6.8 15.2-15.2 0-8.3-6.8-15.2-15.2-15.2z"/><circle class="st0" cx="111.1" cy="52.1" r="5.8"/></g></svg>