<svg xmlns="http://www.w3.org/2000/svg" viewBox="0 0 523.4 226.6"><style/><g id="OBJECT"><path d="M54 122.4H41.7L29.2 98.2H29c.3 3.8.4 6.7.4 8.8v15.5h-8.3V88h12.2l12.5 24h.2c-.2-3.5-.3-6.3-.3-8.4V88H54v34.4zm24.3 0l-1.8-3.5h-.2c-1.2 1.5-2.5 2.6-3.8 3.2-1.3.6-3 .8-5 .8-2.5 0-4.5-.8-5.9-2.3s-2.2-3.6-2.2-6.4c0-2.8 1-5 3-6.4s4.9-2.2 8.6-2.3l4.5-.1v-.4c0-2.2-1.1-3.3-3.3-3.3-2 0-4.4.7-7.4 2l-2.7-6.1c3.1-1.6 7-2.4 11.8-2.4 3.4 0 6.1.8 8 2.5 1.9 1.7 2.8 4.1 2.8 7.1v17.5h-6.4zm-6.8-6c1.1 0 2.1-.4 2.9-1.1.8-.7 1.2-1.6 1.2-2.8v-2.1l-2.1.1c-3 .1-4.6 1.2-4.6 3.3 0 1.8.8 2.6 2.6 2.6zm39.6 6H88.9v-5.3l11.1-14.4H89.6v-7.1h21v5.7l-10.6 14h11.1v7.1zm21.8 0l-1.8-3.5h-.2c-1.2 1.5-2.5 2.6-3.8 3.2-1.3.6-3 .8-5 .8-2.5 0-4.5-.8-5.9-2.3s-2.2-3.6-2.2-6.4c0-2.8 1-5 3-6.4s4.9-2.2 8.6-2.3l4.5-.1v-.4c0-2.2-1.1-3.3-3.3-3.3-2 0-4.4.7-7.4 2l-2.7-6.1c3.1-1.6 7-2.4 11.8-2.4 3.4 0 6.1.8 8 2.5 1.9 1.7 2.8 4.1 2.8 7.1v17.5h-6.4zm-6.8-6c1.1 0 2.1-.4 2.9-1.1.8-.7 1.2-1.6 1.2-2.8v-2.1l-2.1.1c-3 .1-4.6 1.2-4.6 3.3-.1 1.8.8 2.6 2.6 2.6zm35.6-21.1c.8 0 1.6.1 2.3.2l.5.1-.8 8.7c-.8-.2-1.8-.3-3.1-.3-2 0-3.5.5-4.4 1.4s-1.4 2.2-1.4 4v13.1h-9.2V95.7h6.9l1.4 4.3h.4c.8-1.4 1.8-2.6 3.2-3.4 1.4-.9 2.8-1.3 4.2-1.3zm19.4 27.6c-4.5 0-7.9-1.2-10.4-3.5-2.5-2.4-3.7-5.7-3.7-10.1 0-4.5 1.1-8 3.4-10.4s5.5-3.6 9.8-3.6c4 0 7.1 1 9.3 3.1s3.3 5.1 3.3 9.1v4.1h-16.5c.1 1.5.6 2.7 1.6 3.5 1 .8 2.4 1.3 4.2 1.3 1.6 0 3.1-.2 4.5-.5s2.8-.8 4.4-1.6v6.6c-1.4.7-2.9 1.3-4.5 1.5s-3.2.5-5.4.5zm-.5-21.4c-1.1 0-2 .3-2.7 1-.7.7-1.2 1.8-1.3 3.2h7.9c0-1.3-.4-2.3-1.1-3.1s-1.6-1.1-2.8-1.1zm34.4 20.9v-14.6c0-1.8-.3-3.1-.8-4-.5-.9-1.3-1.4-2.5-1.4-1.6 0-2.7.6-3.4 1.9-.7 1.2-1 3.4-1 6.4v11.7h-9.2V95.7h7l1.2 3.3h.5c.8-1.3 1.9-2.2 3.3-2.8 1.4-.6 3-.9 4.8-.9 3 0 5.3.9 6.9 2.6s2.5 4.1 2.5 7.2v17.4H215zm24.4-15c1.1-1.8 2.1-3.2 2.9-4.2l6-7.5h10.3l-9.3 11.4 9.9 15.4h-10.5l-5.8-9.6-3 2.3v7.3h-9.3V85.7h9.3v14.4c0 2.5-.2 4.9-.5 7.2zm66.7 11.2c.7 0 1.4-.1 2-.2.6-.1 1.2-.2 1.5-.3v3c-.4.2-1 .4-1.9.5-.8.1-1.6.2-2.2.2-5 0-7.5-2.6-7.5-7.9V98.6h-3.7v-1.9l3.7-1.6 1.7-5.5h2.3v6h7.5v3H302v15.2c0 1.6.4 2.8 1.1 3.6.7.8 1.7 1.2 3 1.2zm20.5-23.5c1.1 0 2.2.1 3.1.3l-.5 3.6c-1.1-.2-2-.4-2.8-.4-2.1 0-3.9.8-5.4 2.5-1.5 1.7-2.2 3.8-2.2 6.3v13.9h-3.9V95.5h3.2l.4 4.8h.2c1-1.7 2.1-3 3.5-3.9s2.8-1.3 4.4-1.3zm23.8 26.3l-.8-3.7h-.2c-1.3 1.6-2.6 2.7-3.9 3.3-1.3.6-2.9.9-4.8.9-2.6 0-4.6-.7-6-2-1.5-1.3-2.2-3.2-2.2-5.6 0-5.2 4.2-8 12.5-8.2l4.4-.1v-1.6c0-2-.4-3.5-1.3-4.5s-2.3-1.5-4.2-1.5c-2.2 0-4.6.7-7.3 2l-1.2-3c1.3-.7 2.7-1.2 4.2-1.6 1.5-.4 3-.6 4.6-.6 3.1 0 5.4.7 6.9 2.1 1.5 1.4 2.2 3.6 2.2 6.6v17.6h-2.9zm-8.8-2.8c2.4 0 4.4-.7 5.7-2 1.4-1.3 2.1-3.2 2.1-5.6v-2.3l-3.9.2c-3.1.1-5.4.6-6.7 1.5-1.4.9-2.1 2.2-2.1 4 0 1.4.4 2.5 1.3 3.2s2 1 3.6 1zm37.5 2.8v-16.7c0-2.1-.5-3.7-1.4-4.7-1-1-2.5-1.6-4.5-1.6-2.7 0-4.7.7-5.9 2.2-1.3 1.5-1.9 3.9-1.9 7.2v13.6h-3.9V95.5h3.2l.6 3.5h.2c.8-1.3 1.9-2.3 3.4-3 1.4-.7 3.1-1 4.8-1 3.1 0 5.5.8 7 2.3 1.6 1.5 2.4 3.9 2.4 7.2v16.9h-4zm28.6-7.1c0 2.4-.9 4.3-2.7 5.6-1.8 1.3-4.3 2-7.5 2-3.4 0-6.1-.5-8-1.6v-3.6c1.2.6 2.6 1.1 4 1.5 1.4.4 2.8.5 4.1.5 2 0 3.6-.3 4.7-1s1.7-1.6 1.7-3c0-1-.4-1.9-1.3-2.6-.9-.7-2.6-1.6-5.1-2.5-2.4-.9-4.1-1.7-5.1-2.3-1-.7-1.8-1.4-2.3-2.3-.5-.8-.7-1.9-.7-3 0-2.1.9-3.8 2.6-5s4.1-1.8 7.1-1.8c2.8 0 5.5.6 8.2 1.7l-1.4 3.2c-2.6-1.1-4.9-1.6-7.1-1.6-1.9 0-3.3.3-4.2.9-.9.6-1.4 1.4-1.4 2.4 0 .7.2 1.3.5 1.8.4.5.9 1 1.7 1.4.8.4 2.3 1.1 4.5 1.9 3.1 1.1 5.1 2.2 6.2 3.4s1.5 2.3 1.5 4zm10.3 7.1h-3.9V84.7h3.9v36.7zm24.2 0l-.8-3.7h-.2c-1.3 1.6-2.6 2.7-3.9 3.3-1.3.6-2.9.9-4.8.9-2.6 0-4.6-.7-6-2-1.5-1.3-2.2-3.2-2.2-5.6 0-5.2 4.2-8 12.5-8.2l4.4-.1v-1.6c0-2-.4-3.5-1.3-4.5s-2.3-1.5-4.2-1.5c-2.2 0-4.6.7-7.3 2l-1.2-3c1.3-.7 2.7-1.2 4.2-1.6 1.5-.4 3-.6 4.6-.6 3.1 0 5.4.7 6.9 2.1 1.5 1.4 2.2 3.6 2.2 6.6v17.6h-2.9zm-8.8-2.8c2.4 0 4.4-.7 5.7-2 1.4-1.3 2.1-3.2 2.1-5.6v-2.3l-3.9.2c-3.1.1-5.4.6-6.7 1.5-1.4.9-2.1 2.2-2.1 4 0 1.4.4 2.5 1.3 3.2s2 1 3.6 1zm28.1 0c.7 0 1.4-.1 2-.2.6-.1 1.2-.2 1.5-.3v3c-.4.2-1 .4-1.9.5-.8.1-1.6.2-2.2.2-5 0-7.5-2.6-7.5-7.9V98.6h-3.7v-1.9l3.7-1.6 1.7-5.5h2.3v6h7.5v3h-7.5v15.2c0 1.6.4 2.8 1.1 3.6.7.8 1.7 1.2 3 1.2zm19.7 3.2c-3.8 0-6.8-1.2-9-3.5s-3.3-5.6-3.3-9.7c0-4.2 1-7.5 3.1-9.9 2.1-2.5 4.8-3.7 8.3-3.7 3.2 0 5.8 1.1 7.7 3.2s2.8 4.9 2.8 8.4v2.5H473c.1 3 .8 5.3 2.3 6.9 1.5 1.6 3.5 2.4 6.1 2.4 2.8 0 5.5-.6 8.3-1.7v3.5c-1.4.6-2.7 1-3.9 1.3-1.4.2-2.9.3-4.6.3zm-1.1-23.5c-2.1 0-3.7.7-5 2s-2 3.2-2.2 5.6h13.5c0-2.5-.6-4.4-1.7-5.7-1-1.2-2.6-1.9-4.6-1.9zm33.9 16c0 2.4-.9 4.3-2.7 5.6-1.8 1.3-4.3 2-7.5 2-3.4 0-6.1-.5-8-1.6v-3.6c1.2.6 2.6 1.1 4 1.5 1.4.4 2.8.5 4.1.5 2 0 3.6-.3 4.7-1s1.7-1.6 1.7-3c0-1-.4-1.9-1.3-2.6-.9-.7-2.6-1.6-5.1-2.5-2.4-.9-4.1-1.7-5.1-2.3-1-.7-1.8-1.4-2.3-2.3-.5-.8-.7-1.9-.7-3 0-2.1.9-3.8 2.6-5s4.1-1.8 7.1-1.8c2.8 0 5.5.6 8.2 1.7l-1.4 3.2c-2.6-1.1-4.9-1.6-7.1-1.6-1.9 0-3.3.3-4.2.9-.9.6-1.4 1.4-1.4 2.4 0 .7.2 1.3.5 1.8.4.5.9 1 1.7 1.4.8.4 2.3 1.1 4.5 1.9 3.1 1.1 5.1 2.2 6.2 3.4 1 .9 1.5 2.3 1.5 4z"/><circle cx="275.4" cy="109.4" r="13.7" fill="#ffec00"/></g></svg>