<svg xmlns="http://www.w3.org/2000/svg" viewBox="0 0 171.3 160.1"><style/><g id="OBJECT"><circle cx="84.5" cy="78" r="70.6"/><path d="M123.7 45.2c-.9-2-2.8-3.1-5.3-3.1-1.8 0-3.4.6-3.6.7-.5.2-53.5 20.5-75.3 29.4-1.9.8-3.1 1.9-3.7 3.3-.8 2.2.7 4.4 2.2 5 5.4 2.4 16.6 5.7 20.2 6.7 1.2 3.9 5.2 17.3 7.1 23.1.5 1.5 1.9 2.4 3.9 2.4h.5c.5-.1 1-.3 1.3-.7.3-.3.5-.7.5-1.2l1.1-16.3c2.1 1.6 5.2 3.9 8.6 6.5 6.8 5.1 14.8 11 19.3 14.3 1.6 1.2 3.1 1.7 4.6 1.7 3.3 0 5.1-2.8 5.8-5.2 3.7-14.5 9.2-42 12.5-58.4l.7-3.6c.5-2.3.1-3.6-.4-4.6zM68.8 90.5l-1 14.4c-2.5-7.8-6.1-19.9-6.1-20 0 0 0-.1-.1-.1v-.1l41.4-27s2.8-1.9 3.9-2.2c1.4-.3 1.8.3 1.5.6-1 1.3-5.8 5.4-5.8 5.4L69.7 89c-.5.4-.8.9-.9 1.5z" fill="#fff"/></g></svg>